<?xml version="1.0" encoding="UTF-8"?>
<svg xmlns="http://www.w3.org/2000/svg" xmlns:xlink="http://www.w3.org/1999/xlink" version="1.1" x="0px" y="0px" viewBox="0 0 100 100" style="enable-background:new 0 0 100 100;" xml:space="preserve">
<path style="fill:white" d="M72.2,52.8H27.8c-1.5,0-2.8-1.2-2.8-2.8v0c0-1.5,1.2-2.8,2.8-2.8h44.4c1.5,0,2.8,1.2,2.8,2.8v0C75,51.5,73.8,52.8,72.2,52.8  z" />
<g>
    <path style="fill:white" d="M68.6,32.5L59.1,23c-0.5-0.5-1.2-0.8-2-0.8H36.1c-3.1,0-5.6,2.5-5.6,5.6v19.4h5.6V29.2c0-0.8,0.6-1.4,1.4-1.4h13.9v7.5   c0,2.8,2.2,5,5,5h7.5v6.9h5.6V34.5C69.4,33.7,69.2,33,68.6,32.5z M56.9,34.7v-6l6,6H56.9z" />
    <path style="fill:white" d="M63.9,70.8c0,0.8-0.6,1.4-1.4,1.4h-4.2h-2.8H37.5c-0.8,0-1.4-0.6-1.4-1.4v-9.7c0-1.5-1.2-2.8-2.8-2.8h0   c-1.5,0-2.8,1.2-2.8,2.8v11.1c0,3.1,2.5,5.6,5.6,5.6h19.4h2.8h5.6c3.1,0,5.6-2.5,5.6-5.6V61.1c0-1.5-1.2-2.8-2.8-2.8h0   c-1.5,0-2.8,1.2-2.8,2.8V70.8z" />
    <g>
    <path style="fill:white" d="M53.6,58.3H41.7c-0.8,0-1.4-0.6-1.4-1.4c0-0.8,0.6-1.4,1.4-1.4h11.9c0.8,0,1.4,0.6,1.4,1.4C55,57.7,54.3,58.3,53.6,58.3z" />
    </g>
    <g>
    <path style="fill:white" d="M50,63.9h-8.3c-0.8,0-1.4-0.6-1.4-1.4s0.6-1.4,1.4-1.4H50c0.8,0,1.4,0.6,1.4,1.4S50.8,63.9,50,63.9z" />
    </g>
</g>
</svg>

